PathFileType	4	(X/Y/Z)	C:/Users/opensim2020/Desktop/walking_exp_matlab/subject01_walking04_static.trc	
DataRate	CameraRate	NumFrames	NumMarkers	Units	OrigDataRate	OrigDataStartFrame	OrigNumFrames	
100.00	100.00	4	43	mm	100.00	1	321	
Frame#	Time	LFHD			RFHD			LBHD			RBHD			C7			T10			CLAV			STRN			RBAK			LSHO			LUPA			LELB			LFRM			LWRA			LWRB			LFIN			RSHO			RUPA			RELB			RFRM			RWRA			RWRB			RFIN			LASI			RASI			LPSI			RPSI			LTHI			LKNE			LTIB			LANK			LHEE			LTOE			RTHI			RKNE			RTIB			RANK			RHEE			RTOE			*39			*40			*41			*42			
		X1	Y1	Z1	X2	Y2	Z2	X3	Y3	Z3	X4	Y4	Z4	X5	Y5	Z5	X6	Y6	Z6	X7	Y7	Z7	X8	Y8	Z8	X9	Y9	Z9	X10	Y10	Z10	X11	Y11	Z11	X12	Y12	Z12	X13	Y13	Z13	X14	Y14	Z14	X15	Y15	Z15	X16	Y16	Z16	X17	Y17	Z17	X18	Y18	Z18	X19	Y19	Z19	X20	Y20	Z20	X21	Y21	Z21	X22	Y22	Z22	X23	Y23	Z23	X24	Y24	Z24	X25	Y25	Z25	X26	Y26	Z26	X27	Y27	Z27	X28	Y28	Z28	X29	Y29	Z29	X30	Y30	Z30	X31	Y31	Z31	X32	Y32	Z32	X33	Y33	Z33	X34	Y34	Z34	X35	Y35	Z35	X36	Y36	Z36	X37	Y37	Z37	X38	Y38	Z38	X39	Y39	Z39	X40	Y40	Z40	X41	Y41	Z41	X42	Y42	Z42	X43	Y43	Z43	

1	0.000	9.07480	-403.93988	1684.60059	6.37841	-289.82614	1694.07959	105.87659	-404.71475	1605.02271	107.16781	-284.16992	1613.16565	107.49104	-356.12280	1436.88647	131.46040	-345.90408	1143.14795	-40.73457	-345.83334	1376.63562	-89.11870	-346.07645	1221.84973	157.20045	-276.34308	1241.59290	12.74346	-510.10471	1399.77283	33.42388	-606.84100	1224.05164	42.49320	-632.24738	1076.32007	-9.16648	-643.21716	968.41669	-80.71500	-598.17462	856.58588	-40.01661	-642.87610	850.41998	-92.53176	-632.93237	783.81445	29.37176	-199.03856	1402.07153	79.90151	-81.91986	1212.98572	64.36602	-54.68870	1089.52979	16.47750	-35.34523	972.69977	-51.26894	-87.59644	857.89990	-32.40714	-32.73599	859.64178	-66.58690	-50.73373	782.60938	-54.33465	-446.22589	937.36523	-43.94983	-229.09615	940.88184	136.96234	-404.36618	951.99976	142.66553	-261.72852	957.44232	-0.10509	-518.08783	606.29742	22.78193	-508.34152	472.23230	75.05785	-530.82050	293.04047	84.72134	-488.33133	71.56854	124.13584	-435.88660	39.41800	-64.31771	-509.11621	33.34036	30.98916	-158.12827	613.12885	24.50272	-173.81975	456.02399	72.21298	-151.34814	288.16391	79.77822	-179.30498	78.53425	124.66541	-227.66367	35.46866	-61.85632	-164.44629	36.94305	28.23158	-314.03589	1721.96399	-3102.02344	1973.00525	1023.61389	-3140.46582	2012.51282	1021.84930			 
2	0.010	8.96699	-403.96353	1684.59741	6.24374	-289.85629	1694.05505	105.79801	-405.20508	1605.06677	107.04226	-284.22214	1613.15405	107.42490	-356.12244	1436.90393	131.40341	-345.88547	1143.13965	-40.77979	-345.86075	1376.62878	-89.13623	-346.07809	1221.82080	157.16931	-276.35992	1241.60071	12.71227	-510.13440	1399.75439	33.41289	-606.80334	1223.99841	42.45531	-632.21326	1076.26416	-9.21669	-643.18311	968.36102	-80.81031	-598.09570	856.59015	-40.10325	-642.79559	850.37366	-92.63475	-632.87201	783.80975	29.31208	-199.06900	1402.06897	79.89944	-81.92095	1212.97253	64.39006	-54.68731	1089.53748	16.53561	-35.33405	972.69714	-51.20316	-87.54900	857.87842	-32.34456	-32.67826	859.63995	-66.52009	-50.68713	782.61060	-54.34462	-446.21503	937.36340	-44.00136	-229.10077	940.88159	136.92613	-404.33646	951.97687	142.61137	-261.77124	957.45459	-0.11627	-518.08679	606.28326	22.72797	-508.32422	472.23245	75.01343	-530.83038	293.02786	84.71862	-488.33371	71.55122	124.14046	-435.89114	39.39494	-64.33909	-509.12787	33.32977	30.88970	-158.05310	613.14795	24.49677	-173.83827	456.00558	72.17818	-151.35715	288.18033	79.81863	-179.31244	78.53783	124.61922	-227.75822	35.43518	-61.85230	-164.44049	36.93811	28.39080	-313.98538	1722.15442	-3102.17383	1973.02161	1024.25562	-3140.55908	2012.46753	1021.82269			 
3	0.020	8.86598	-403.97897	1684.60278	6.15395	-289.85980	1694.05994	105.68386	-404.77386	1605.05835	106.97801	-284.21207	1613.16260	107.36650	-356.15518	1436.91736	131.39330	-345.87531	1143.14819	-40.81241	-345.90234	1376.60278	-89.15620	-346.08823	1221.79724	157.09595	-276.35861	1241.61597	12.69610	-510.16534	1399.74268	33.41071	-606.85608	1224.00977	42.40781	-632.18951	1076.22131	-9.25458	-643.12085	968.34515	-80.88732	-598.01611	856.58246	-40.18938	-642.70831	850.35596	-92.73320	-632.75208	783.78192	29.25188	-199.08286	1402.07349	79.83992	-81.89477	1213.00647	64.40327	-54.69539	1089.54089	16.61341	-35.31199	972.70361	-51.15014	-87.50620	857.87689	-32.26192	-32.64913	859.60876	-66.45062	-50.63204	782.59393	-54.36676	-446.22052	937.36407	-44.03079	-229.08319	940.87897	136.91924	-404.32132	951.97473	142.58374	-261.73978	957.42725	-0.15967	-518.06885	606.29425	22.67160	-508.29205	472.23349	74.99306	-530.81116	293.02609	84.74303	-488.32697	71.54539	124.10327	-435.84515	39.40039	-64.30383	-509.10443	33.33182	30.87389	-158.05016	613.14935	24.48122	-173.82680	455.99274	72.14395	-151.32262	288.18484	79.76092	-179.27321	78.53871	124.63326	-227.70641	35.44127	-61.85485	-164.43716	36.93391	28.03894	-314.05164	1721.94763	-3102.20117	1972.96545	1024.23267	-3140.62427	2012.48022	1021.80157			 
4	0.030	8.77312	-403.98795	1684.62988	6.05694	-289.86234	1694.04346	105.58018	-404.79404	1605.09131	106.90341	-284.23633	1613.18091	107.31502	-356.18948	1436.92297	131.35883	-345.91187	1143.18689	-40.88300	-345.92560	1376.57410	-89.16718	-346.12161	1221.75989	157.05713	-276.38654	1241.63696	12.64783	-510.18924	1399.71643	33.38039	-606.86377	1223.97717	42.38883	-632.19080	1076.17114	-9.30713	-643.06079	968.30981	-80.96235	-597.90271	856.57098	-40.24829	-642.60858	850.31439	-92.81721	-632.63702	783.77026	29.18290	-199.09773	1402.11438	79.79519	-81.91330	1213.03613	64.42370	-54.71062	1089.60596	16.63990	-35.30419	972.72180	-51.07911	-87.49458	857.86316	-32.15674	-32.64560	859.62817	-66.34657	-50.59083	782.56592	-54.37888	-446.21558	937.32892	-44.03040	-229.08389	940.87305	136.92276	-404.33243	951.98260	142.57907	-261.72385	957.45691	-0.18625	-518.07709	606.29022	22.62949	-508.31064	472.23203	74.95660	-530.80493	293.01166	84.69447	-488.32062	71.53942	124.13667	-435.90057	39.41582	-64.31078	-509.11823	33.34331	30.82889	-158.04431	613.14063	24.45800	-173.82907	455.98895	72.15180	-151.33153	288.19153	79.76138	-179.25400	78.56308	124.59847	-227.78793	35.48196	-61.85865	-164.42909	36.91640	28.17967	-313.97293	1722.15881	-3102.24658	1973.01123	1024.27234	-3140.50073	2012.49841	1021.78625			 
